<?xml version="1.0" encoding="UTF-8" standalone="no"?>
<!-- Created with Inkscape (http://www.inkscape.org/) -->

<svg
   width="210mm"
   height="210mm"
   viewBox="0 0 210 210"
   version="1.1"
   id="svg1"
   inkscape:version="1.3.2 (091e20e, 2023-11-25, custom)"
   sodipodi:docname="documente-logo3.svg"
   inkscape:export-filename="..\..\..\dev\documente\documente\docs\public\logo3.svg"
   inkscape:export-xdpi="96"
   inkscape:export-ydpi="96"
   xmlns:inkscape="http://www.inkscape.org/namespaces/inkscape"
   xmlns:sodipodi="http://sodipodi.sourceforge.net/DTD/sodipodi-0.dtd"
   xmlns:xlink="http://www.w3.org/1999/xlink"
   xmlns="http://www.w3.org/2000/svg"
   xmlns:svg="http://www.w3.org/2000/svg">
  <sodipodi:namedview
     id="namedview1"
     pagecolor="#ffffff"
     bordercolor="#666666"
     borderopacity="1.0"
     inkscape:showpageshadow="2"
     inkscape:pageopacity="0.0"
     inkscape:pagecheckerboard="false"
     inkscape:deskcolor="#ffffff"
     inkscape:document-units="px"
     inkscape:zoom="0.5"
     inkscape:cx="552"
     inkscape:cy="499"
     inkscape:window-width="1920"
     inkscape:window-height="991"
     inkscape:window-x="-9"
     inkscape:window-y="-9"
     inkscape:window-maximized="1"
     inkscape:current-layer="layer1"
     showgrid="false"
     showborder="true"
     inkscape:clip-to-page="false" />
  <defs
     id="defs1">
    <linearGradient
       id="linearGradient12"
       inkscape:collect="always"
       inkscape:label="Cover">
      <stop
         style="stop-color:#6de569;stop-opacity:1;"
         offset="0"
         id="stop11" />
      <stop
         style="stop-color:#61e5bd;stop-opacity:1;"
         offset="1"
         id="stop12" />
    </linearGradient>
    <linearGradient
       inkscape:collect="always"
       xlink:href="#linearGradient12"
       id="linearGradient7"
       x1="18.090536"
       y1="105"
       x2="191.90948"
       y2="105"
       gradientUnits="userSpaceOnUse"
       gradientTransform="matrix(1.1057146,0,0,1.631517,-11.100044,-75.0567)" />
    <linearGradient
       inkscape:collect="always"
       xlink:href="#linearGradient12"
       id="linearGradient9"
       x1="46.721764"
       y1="105"
       x2="163.27823"
       y2="105"
       gradientUnits="userSpaceOnUse"
       gradientTransform="translate(12.170835,-0.52916665)" />
    <linearGradient
       inkscape:collect="always"
       xlink:href="#linearGradient12"
       id="linearGradient2"
       gradientUnits="userSpaceOnUse"
       gradientTransform="matrix(1.1057146,0,0,1.631517,-11.100044,-75.0567)"
       x1="18.090536"
       y1="105"
       x2="191.90948"
       y2="105" />
  </defs>
  <g
     inkscape:label="Calque 1"
     inkscape:groupmode="layer"
     id="layer1">
    <path
       id="rect6"
       style="fill:#f8f8f8;fill-opacity:1;stroke:url(#linearGradient2);stroke-width:15.875;stroke-linecap:round;stroke-dasharray:none"
       d="M 12.03111,19.39022 105,36.852719 197.96889,19.39022 c 1.70322,-0.319919 3.12818,1.395171 3.12818,3.128186 V 169.98674 c 0,1.73302 -1.39517,3.12819 -3.12818,3.12819 L 105,190.57743 12.03111,173.11493 c -1.70323,-0.31992 -3.1281864,-1.39517 -3.1281864,-3.12819 V 22.518406 c 0,-1.733015 1.3951714,-3.128186 3.1281864,-3.128186 z"
       sodipodi:nodetypes="scsssscssss"
       inkscape:export-filename="..\..\..\dev\documente\documente\docs\public\rect6.svg"
       inkscape:export-xdpi="96"
       inkscape:export-ydpi="96" />
    <path
       style="fill:url(#linearGradient9);stroke:none;stroke-width:7.11678;stroke-linecap:butt;stroke-linejoin:miter;stroke-dasharray:none;stroke-opacity:1"
       d="m 55.924511,98.144005 c 7.247065,21.969765 39.197615,52.075345 48.657949,51.367445 25.05769,-1.87502 75.66741,-87.409565 61.34113,-84.882836 -6.39533,1.127945 -52.41215,51.152016 -61.48858,54.382276 -6.304312,2.24364 -53.559781,-36.173982 -48.510499,-20.866885 z"
       id="path13-2-5"
       sodipodi:nodetypes="sssss" />
    <path
       id="rect14"
       style="fill:#28231f;fill-opacity:0.04;stroke:none;stroke-width:15.875;stroke-linecap:round;stroke-linejoin:round;stroke-dasharray:none;stroke-opacity:0.0579345"
       d="m 12.031307,19.39003 c -1.733014,0 -3.1284914,1.395478 -3.1284914,3.128492 V 169.98652 c 0,1.73302 1.4252624,2.80857 3.1284914,3.12849 l 92.968483,17.4625 0.0506,-0.009 V 36.843228 l -0.0506,0.0093 z" />
    <path
       id="path14"
       style="fill:none;fill-opacity:1;stroke:url(#linearGradient7);stroke-width:15.875;stroke-linecap:round;stroke-dasharray:none"
       d="M 12.03111,19.39022 105,36.852719 197.96889,19.39022 c 1.70322,-0.319919 3.12818,1.395171 3.12818,3.128186 V 169.98674 c 0,1.73302 -1.39517,3.12819 -3.12818,3.12819 L 105,190.57743 12.03111,173.11493 c -1.70323,-0.31992 -3.1281864,-1.39517 -3.1281864,-3.12819 V 22.518406 c 0,-1.733015 1.3951714,-3.128186 3.1281864,-3.128186 z"
       sodipodi:nodetypes="scsssscssss"
       inkscape:export-filename="..\..\..\dev\documente\documente\docs\public\rect6.svg"
       inkscape:export-xdpi="96"
       inkscape:export-ydpi="96" />
  </g>
</svg>
